<?xml version="1.0" standalone="no"?>
<!DOCTYPE svg PUBLIC "-//W3C//DTD SVG 20010904//EN"
 "http://www.w3.org/TR/2001/REC-SVG-20010904/DTD/svg10.dtd">
<svg version="1.0" xmlns="http://www.w3.org/2000/svg"
 width="700.000000pt" height="700.000000pt" viewBox="0 0 700.000000 700.000000"
 preserveAspectRatio="xMidYMid meet">
<metadata>
Created by potrace 1.14, written by Peter Selinger 2001-2017
</metadata>
<g transform="translate(0.000000,700.000000) scale(0.100000,-0.100000)"
fill="#000000" stroke="none">
<path d="M2002 4640 c-244 -44 -366 -160 -449 -427 l-28 -88 0 -595 c0 -591 0
-596 23 -675 32 -112 93 -233 147 -293 57 -64 176 -125 285 -147 98 -21 313
-21 410 -1 161 34 262 106 329 236 71 135 85 215 82 463 l-1 117 -220 0 -220
0 0 -151 c0 -181 -18 -279 -60 -320 -77 -77 -231 -56 -278 38 -39 77 -42 125
-42 728 0 608 3 655 43 727 49 88 208 106 279 31 45 -47 51 -78 57 -268 l6
-180 223 -3 222 -2 0 145 c0 216 -26 324 -112 462 -64 102 -135 151 -273 188
-71 20 -343 29 -423 15z"/>
<path d="M3386 4602 c-5 -9 -436 -2136 -436 -2154 0 -4 97 -8 215 -8 l214 0 6
33 c3 17 23 124 44 237 l37 205 180 3 180 2 38 -240 39 -240 213 0 214 0 -6
28 c-3 15 -101 502 -217 1082 l-212 1055 -252 3 c-138 1 -254 -2 -257 -6z
m324 -977 c33 -214 63 -400 65 -412 5 -23 5 -23 -130 -23 -93 0 -135 3 -135
11 0 18 120 791 127 819 8 32 3 61 73 -395z"/>
<path d="M4287 4603 c-4 -3 -7 -78 -7 -165 l0 -158 175 0 175 0 0 -920 0 -920
230 0 230 0 0 920 0 920 170 0 170 0 0 165 0 165 -568 0 c-313 0 -572 -3 -575
-7z"/>
</g>
</svg>
