<svg width="28" height="22" fill="none" xmlns="http://www.w3.org/2000/svg"><path d="M.085 5.49c0-.855.515-1.316 1.546-1.383l3.97.025a.52.52 0 01.532.377C6.542 5.767 7 6.852 7.505 7.766c.507.913 1.168 1.966 1.985 3.156a.36.36 0 00.347.226c.124 0 .222-.059.293-.176l.08-.277.026-4.35c0-.302-.075-.503-.226-.604-.151-.1-.43-.176-.84-.226-.319-.05-.479-.235-.479-.553 0-.067.009-.118.027-.151.373-1.09 1.438-1.635 3.197-1.635l1.492-.025c.675 0 1.234.16 1.678.478.444.318.667.821.667 1.509v5.708a.63.63 0 00.346.126c.266 0 .497-.15.693-.452 1.953-2.582 3.01-4.31 3.17-5.181a.42.42 0 01.054-.126c.124-.251.328-.47.612-.654.285-.184.533-.31.746-.377a.555.555 0 01.24-.05h4.13l.266.025c.355 0 .63.16.826.478.071.1.12.21.147.327.026.117.044.234.053.352.009.117.013.184.013.201v.176c-.124.687-.44 1.42-.945 2.2-.507.78-1.15 1.623-1.932 2.528s-1.27 1.5-1.466 1.785c-.16.202-.24.386-.24.554 0 .134.072.285.214.452l3.89 4.627c.213.269.32.562.32.88 0 .386-.16.705-.48.956a2.06 2.06 0 01-1.146.428l-.453.025h-4.05a.875.875 0 00-.106.012.862.862 0 01-.107.013c-.39 0-.755-.16-1.092-.478-.124-.134-.96-1.123-2.504-2.967a1.384 1.384 0 00-.373-.327c-.072.268-.165.654-.28 1.157-.116.503-.2.863-.253 1.081l-.08.428c-.178.586-.55.938-1.12 1.056l-.372.025h-2.611c-1.475 0-2.944-.637-4.41-1.911-1.465-1.274-2.784-2.922-3.956-4.942C2.323 11.253 1.23 8.902.219 6.22a1.916 1.916 0 01-.134-.73zm16.013 6.513c-.373 0-.71-.096-1.012-.289-.303-.193-.454-.457-.454-.792V5.138c0-.335-.088-.574-.266-.717-.178-.142-.488-.214-.932-.214l-1.52.05c-.763 0-1.34.126-1.73.378.78.352 1.171.922 1.171 1.71v4.426a1.5 1.5 0 01-.532 1.044 1.59 1.59 0 01-1.066.415c-.533 0-.942-.244-1.226-.73-1.385-1.978-2.415-3.856-3.09-5.633l-.24-.654-3.544-.025c-.23 0-.36.013-.386.038-.027.025-.04.096-.04.214 0 .15.018.31.053.477l.56 1.409c1.492 3.638 3.113 6.505 4.862 8.6 1.75 2.096 3.468 3.144 5.156 3.144h2.664c.107 0 .187-.03.24-.088.053-.059.097-.172.133-.34l.053-.251.507-2.213c.142-.302.266-.503.373-.604a.976.976 0 01.692-.276c.427 0 .862.243 1.306.729l2.264 2.716c.142.218.293.327.453.327h4.396c.533 0 .8-.126.8-.378a.465.465 0 00-.08-.25L21.8 13.888c-.302-.352-.453-.729-.453-1.131 0-.403.142-.788.426-1.157.23-.336.68-.893 1.345-1.673a37.63 37.63 0 001.745-2.187c.498-.68.826-1.295.986-1.849l.08-.327a.37.37 0 01-.026-.163.574.574 0 00-.027-.189h-4.183c-.266.1-.48.252-.64.453l-.16.478c-.443 1.157-1.607 2.942-3.49 5.356a1.892 1.892 0 01-1.305.503z" fill="#666"/></svg>