<svg xmlns="http://www.w3.org/2000/svg">
  <symbol id="academy-icon" viewBox="0 0 27 34">
    <path d="M13.6426 0.0157537L13.5 0L0 1.40733V26.0129L13.5 34L27 26.0129V1.40733L13.6426 0.0157537ZM25.2344 25.0151L13.5 31.9573L1.76561 25.0151V14.9293L13.4507 21.8451L13.4701 23.0984L5.45351 18.3548L5.44295 19.5801L13.4894 24.3885L13.5088 25.675L5.46408 20.9174L5.45351 22.1427L13.5 26.9511L21.6239 22.1182V20.8929V16.909L25.2432 14.7595L25.2344 25.0151ZM25.2344 13.4519L22.0147 15.3319L20.5325 16.2071L13.4666 12.0201L13.456 13.2454L19.4957 16.818L19.4429 16.8495L19.3126 16.9247L18.4536 17.4166L13.4666 14.4689L13.456 15.6942L17.3921 18.0222L16.4591 18.6314L16.438 18.6436L13.4666 16.902L13.456 18.1273L15.4029 19.2615L13.4155 20.4483L1.7973 13.5762L13.4349 6.61831L25.2344 13.4519ZM25.2344 12.2266L13.4401 5.31075L1.76561 12.2196V2.9897L13.5 1.76442L25.2344 2.9897V12.2266Z" fill="currentColor"/>
  </symbol>

  <symbol id="mobile-header-logo" viewBox="0 0 34 38">
    <g clip-path="url(#clip0)">
      <path d="M6.07 20.72V18.46C12.7536 17.5423 19.4937 17.0979 26.24 17.13C26.24 17.73 26.24 18.34 26.18 18.95C28.0976 18.099 30.1128 17.4877 32.18 17.13C30.8625 13.722 28.4618 10.8412 25.3471 8.93087C22.2324 7.02052 18.5764 6.1864 14.9414 6.55683C11.3064 6.92727 7.89379 8.48172 5.22852 10.9811C2.56325 13.4804 0.792969 16.7863 0.190001 20.39L6.07 20.72Z" fill="#FDC305"/>
      <path d="M27.24 24.23C26.08 25.51 25.85 25.43 25.85 27.68C25.85 28.59 25.85 32.58 25.85 36.86C28.1425 35.346 30.0245 33.2879 31.328 30.8694C32.6315 28.4509 33.3158 25.7474 33.32 23C33.3068 21.9591 33.1997 20.9216 33 19.9C30.9282 21.1295 28.9967 22.5814 27.24 24.23Z" fill="#FDC305"/>
      <path d="M6.36 25.72C6.36 25.72 2.57 24.28 1.17 23.89C0.787067 23.7693 0.396097 23.6757 0 23.61C0.108395 26.496 0.965588 29.3041 2.48739 31.7586C4.00919 34.2131 6.14326 36.2296 8.68 37.61L6.36 25.72Z" fill="#FDC305"/>
      <path d="M26.29 17.12C26.3307 11.5986 25.862 6.08528 24.89 0.65C24.89 0.65 24.75 -0.64 24 0.41C23.4109 1.65814 23.0067 2.98539 22.8 4.35C18.5418 4.07577 14.2675 4.18957 10.03 4.69C9.24 2 7.85 0.75 7.18 1C6.51 1.25 6.46 4.31 6.46 4.31L6.13 18.41C12.8113 17.506 19.548 17.0749 26.29 17.12Z" fill="#F06351"/>
      <path d="M12.41 14C12.41 13.91 13.41 14.68 13.82 14.92C14.23 15.16 14.43 15.34 14.43 15.51C14.43 15.68 14.16 15.85 13.8 15.85C13.44 15.85 12.89 15.73 12.8 15.58H13.74H14.03C13.4207 15.1294 12.8757 14.5978 12.41 14Z" fill="black"/>
      <path d="M19.89 14.11L18.8 15.44C18.8 15.5 18.63 15.79 18.98 15.74C19.3942 15.6783 19.8023 15.5812 20.2 15.45C20.31 15.45 20.27 15.26 20.09 15.28C19.91 15.3 19.4 15.33 19.09 15.39L19.93 14.13C19.93 14.13 20 14 19.89 14.11Z" fill="black"/>
      <path d="M16.75 20.2C17.2135 19.9958 17.5967 19.6443 17.84 19.2C18.12 18.55 17.84 18.29 17.4 18.2C16.7979 18.0902 16.1765 18.2116 15.66 18.54C15.27 18.9 15.32 19.26 15.61 19.54C15.9613 19.8062 16.3442 20.0279 16.75 20.2Z" fill="black"/>
      <path d="M16.35 21.45C16.2379 21.6785 16.0816 21.8825 15.89 22.05C15.6052 22.2791 15.2551 22.4122 14.89 22.43C14.3638 22.472 13.8406 22.3189 13.42 22C13.2222 21.8808 13.0436 21.7324 12.89 21.56C12.7895 21.4491 12.6669 21.3605 12.53 21.3C12.53 21.3 13.28 25.4 15.1 26.05C16.92 26.7 17.24 25.3 17.3 24.92C17.3601 23.7851 17.0742 22.6588 16.48 21.69C16.46 21.38 16.45 21.58 16.35 21.45Z" fill="#F06351"/>
      <path d="M14.71 22.59C14.2453 22.5247 13.7989 22.3651 13.3982 22.1209C12.9975 21.8767 12.651 21.5531 12.38 21.17C12.3667 21.157 12.3561 21.1414 12.3489 21.1242C12.3417 21.1071 12.338 21.0886 12.338 21.07C12.338 21.0514 12.3417 21.0329 12.3489 21.0158C12.3561 20.9986 12.3667 20.983 12.38 20.97C12.393 20.9567 12.4086 20.9461 12.4258 20.9389C12.4429 20.9317 12.4614 20.928 12.48 20.928C12.4986 20.928 12.5171 20.9317 12.5342 20.9389C12.5514 20.9461 12.567 20.9567 12.58 20.97C13.0848 21.6642 13.843 22.1313 14.69 22.27C15.0217 22.245 15.3426 22.1413 15.6261 21.9674C15.9096 21.7934 16.1475 21.5544 16.32 21.27L16.46 21.08L16.56 21.29C16.56 21.29 16.93 22.05 17.56 22.09C18.19 22.13 18.61 21.68 19.17 20.81C19.183 20.7967 19.1986 20.7861 19.2158 20.7789C19.2329 20.7717 19.2514 20.768 19.27 20.768C19.2886 20.768 19.3071 20.7717 19.3242 20.7789C19.3414 20.7861 19.357 20.7967 19.37 20.81C19.4023 20.8306 19.4255 20.8629 19.4348 20.9C19.4441 20.9372 19.4388 20.9766 19.42 21.01C18.78 22.01 18.15 22.45 17.54 22.41C17.308 22.3763 17.0867 22.2904 16.8927 22.1587C16.6987 22.0271 16.5371 21.8531 16.42 21.65C16.2233 21.9245 15.9676 22.1514 15.6717 22.3141C15.3758 22.4767 15.0471 22.571 14.71 22.59Z" fill="black"/>
      <path d="M26.24 18.92C24.4445 20.5437 22.7512 22.277 21.17 24.11C19.5986 25.9361 17.8238 27.5768 15.88 29C15.66 28.47 14.26 27.49 14.26 27.49C14.26 27.49 11.13 25.35 9.08 23.67C7.97414 22.7373 6.9287 21.7353 5.95 20.67L3.95 20.56C6.84018 24.7655 11.0702 27.8676 15.95 29.36C16.81 29.22 19.22 27.5 21.02 26.1C23.1389 24.2819 25.124 22.3134 26.96 20.21C27.4625 19.621 27.8493 18.9425 28.1 18.21C27 18.6 26.24 18.92 26.24 18.92Z" fill="#F06351"/>
    </g>
    <defs>
      <clipPath id="clip0">
        <rect width="33.32" height="37.61" fill="white"/>
      </clipPath>
    </defs>
  </symbol>

  <symbol id="tablet-header-logo" viewBox="0 0 174 52">
    <g clip-path="url(#clip0)">
      <path d="M51.5819 20.854C50.0969 17.265 47.7053 14.1312 44.6456 11.7649C41.5858 9.39869 37.9646 7.88262 34.143 7.36781C30.3214 6.85301 26.4328 7.35745 22.8646 8.83086C19.2965 10.3043 16.1735 12.6952 13.8068 15.7654C11.4402 18.8355 9.9125 22.4777 9.37609 26.329C8.83968 30.1802 9.31325 34.106 10.7496 37.7151C12.186 41.3242 14.535 44.4906 17.5625 46.8987C20.59 49.3068 24.1903 50.8726 28.0046 51.4399C27.505 49.6238 26.9967 47.6166 26.5488 45.4878C27.8519 46.3405 29.2235 47.0816 30.6492 47.7035C30.6492 47.7035 30.7526 49.5804 30.8904 51.6745C32.4308 51.7013 33.9698 51.5644 35.4818 51.2661C35.4427 51.0477 35.4427 50.8241 35.4818 50.6057C35.7316 48.9808 36.4208 46.0526 36.5586 44.167C37.552 43.2297 38.3948 42.1421 39.0567 40.9434L39.005 41.3257C38.5312 45.0273 37.5406 48.9808 36.9376 50.0757C36.7424 50.4381 36.5021 50.7739 36.2226 51.0749C39.3408 50.3371 42.2626 48.924 44.7855 46.9336C47.3083 44.9433 49.3718 42.4233 50.8329 39.5484C52.2941 36.6735 53.1179 33.5124 53.2472 30.2843C53.3765 27.0563 52.8083 23.8385 51.5819 20.854ZM50.3156 24.1472C49.9366 24.5208 49.1527 24.7728 49.0235 23.6432C48.8942 22.5136 48.8598 21.7229 48.8598 21.7229C48.8598 21.7229 47.1972 18.7425 46.577 18.7078C45.9568 18.673 41.5549 21.7229 40.3919 23.0524C39.3841 24.1733 39.1859 24.0951 39.1859 26.0675C39.1859 27.5534 39.3755 33.1666 39.2721 37.459L32.2514 39.3446C30.0448 39.9834 27.8007 40.4825 25.5323 40.8391L24.6709 35.7733H24.5503L22.3364 24.3297C22.3364 24.3297 19.0543 23.0784 17.8483 22.7396C17.2821 22.4897 16.6568 22.4084 16.0462 22.5054C15.4356 22.6024 14.8653 22.8736 14.4026 23.287C13.9306 23.7039 13.5531 24.2185 13.296 24.7958C13.0388 25.373 12.908 25.9994 12.9124 26.6323C13.0945 27.0362 13.2331 27.4585 13.3258 27.8922C13.3689 28.3093 12.2921 28.2659 11.603 28.2659C10.9138 28.2659 10.8105 27.0146 11.3532 25.5462C11.7766 24.417 12.3013 23.3292 12.921 22.2964C13.387 21.3738 13.9881 20.5273 14.7041 19.7852C14.7041 19.7852 14.8247 19.4898 15.7809 19.5767C16.7371 19.6636 22.0521 19.9503 22.0521 19.9503L22.0952 17.9779C27.8722 17.1733 33.6987 16.7842 39.5305 16.8135C39.5305 17.3436 39.5305 17.8736 39.5305 18.4037C41.7394 17.3869 44.118 16.7974 46.5425 16.6658C46.6723 16.6625 46.8008 16.6917 46.9166 16.7509C47.0323 16.81 47.1317 16.8973 47.2058 17.0047C47.4987 17.3783 49.2819 19.6115 49.4886 19.933C50.0677 20.7677 50.5942 21.6383 51.065 22.5397C50.9037 23.1104 50.6505 23.6505 50.3156 24.1385V24.1472Z" fill="#FDC305"/>
      <path d="M48.6363 18.8294C49.0411 19.3508 49.3943 19.8113 49.4977 19.9503C50.0768 20.7851 50.6033 21.6557 51.0741 22.5571C50.9102 23.1091 50.6601 23.6312 50.3333 24.1038C49.9543 24.4774 49.1704 24.7294 49.0411 23.5998C48.9119 22.4702 48.8602 21.7229 48.8602 21.7229C48.8602 21.7229 47.1977 18.7425 46.5775 18.7078C45.9572 18.673 41.5553 21.7229 40.3924 23.0524C39.3845 24.1733 39.1864 24.0951 39.1864 26.0675C39.1864 27.3709 39.3328 31.8458 39.2984 35.8254C40.8576 35.9992 43.149 36.4337 43.8381 37.459C43.8381 37.459 43.5883 31.2202 50.5659 34.4873C50.5659 34.4873 50.8071 25.9806 60.4378 28.1616C57.1639 24.2844 53.1505 21.1107 48.6363 18.8294Z" fill="#F06351"/>
      <path d="M39.5654 16.8135C39.6005 11.9987 39.1968 7.1907 38.3594 2.45035C38.3594 2.45035 38.2302 1.32075 37.61 2.24181C37.0982 3.34291 36.7499 4.51402 36.5763 5.71747C32.8938 5.47914 29.1975 5.57802 25.5328 6.0129C24.8264 3.62338 23.6204 2.53724 23.0432 2.82398C22.4661 3.11072 22.3972 5.67403 22.3972 5.67403L22.1129 17.9779C27.8956 17.1725 33.7279 16.7834 39.5654 16.8135Z" fill="#F06351"/>
      <path d="M39.0651 40.9434C39.1771 40.0136 39.2374 38.7798 39.2719 37.4156L32.2516 39.3011C30.0459 39.9546 27.8019 40.4682 25.5327 40.8391L26.4889 45.1837C26.4889 45.2793 26.4889 45.3748 26.5492 45.4704C27.8522 46.3231 29.2238 47.0642 30.6494 47.6862C32.7328 46.6815 34.7171 45.4799 36.5757 44.0975V44.1497C37.5647 43.217 38.4044 42.1354 39.0651 40.9434Z" fill="#E55645"/>
      <path d="M27.5657 14.0938C27.5227 14.0069 28.4271 14.6847 28.7803 14.8932C29.1334 15.1018 29.3057 15.2582 29.3057 15.4059C29.3057 15.5536 29.0818 15.7013 28.7717 15.7013C28.4616 15.7013 27.9792 15.5971 27.9103 15.4754C27.8414 15.3538 28.4271 15.4754 28.72 15.4754H28.9698C28.4395 15.084 27.9667 14.6189 27.5657 14.0938Z" fill="black"/>
      <path d="M34.0264 14.1894C34.0264 14.1894 33.165 15.3016 33.0875 15.3538C33.0099 15.4059 32.941 15.6492 33.2511 15.6057C33.6071 15.5521 33.9585 15.4708 34.302 15.3624C34.3968 15.3103 34.3623 15.1887 34.1986 15.206C34.035 15.2234 33.6129 15.2495 33.3373 15.3016L34.0694 14.1981C34.0694 14.1981 34.0953 14.0938 34.0264 14.1894Z" fill="black"/>
      <path d="M31.3215 19.4985C31.7208 19.321 32.0508 19.0156 32.2604 18.6296C32.5016 18.0561 32.2604 17.8389 31.8814 17.7607C31.36 17.6647 30.8218 17.7702 30.374 18.0561C30.038 18.3776 30.0811 18.6904 30.374 18.925C30.6649 19.1552 30.9832 19.3478 31.3215 19.4985Z" fill="black"/>
      <path d="M31.0113 20.5933C30.9124 20.7904 30.778 20.9672 30.615 21.1147C30.3697 21.3138 30.0682 21.4294 29.7537 21.4449C29.2794 21.4918 28.8052 21.3552 28.4271 21.0625C28.2535 20.9601 28.099 20.8278 27.9706 20.6715C27.8844 20.5769 27.7785 20.5027 27.6605 20.4543C27.6605 20.4543 28.3065 24.0255 29.8743 24.599C31.442 25.1725 31.7348 23.9387 31.7779 23.6085C31.8304 22.6196 31.5841 21.6379 31.0716 20.7932C31.0716 20.5325 31.0544 20.7063 31.0113 20.5933Z" fill="#F06351"/>
      <path d="M29.5469 21.5839C29.1438 21.5254 28.7566 21.3852 28.4087 21.1716C28.0608 20.9581 27.7594 20.6756 27.5226 20.3413C27.5015 20.3174 27.4897 20.2865 27.4897 20.2544C27.4897 20.2224 27.5015 20.1915 27.5226 20.1676C27.5339 20.156 27.5473 20.1468 27.5621 20.1405C27.5769 20.1343 27.5927 20.131 27.6088 20.131C27.6248 20.131 27.6407 20.1343 27.6555 20.1405C27.6703 20.1468 27.6837 20.156 27.6949 20.1676C27.9081 20.4692 28.1785 20.7252 28.4905 20.9206C28.8025 21.116 29.1499 21.2469 29.5124 21.3058C29.7993 21.2841 30.0769 21.194 30.3225 21.0429C30.5681 20.8919 30.7746 20.6842 30.9251 20.4369L31.0457 20.2718L31.1319 20.463C31.1319 20.463 31.4592 21.1234 31.9932 21.1581C32.5273 21.1929 32.9063 20.7932 33.3973 20.0372C33.4156 20.0096 33.444 19.9904 33.4763 19.9838C33.5086 19.9773 33.5422 19.984 33.5696 20.0025C33.597 20.0209 33.616 20.0496 33.6225 20.0822C33.629 20.1147 33.6223 20.1486 33.604 20.1762C33.0298 21.0278 32.4871 21.4362 31.976 21.4014C31.7785 21.375 31.5893 21.3043 31.4224 21.1946C31.2554 21.0848 31.115 20.9388 31.0113 20.7671C30.8427 21.0045 30.6238 21.201 30.3705 21.3423C30.1172 21.4836 29.8358 21.5661 29.5469 21.5839Z" fill="black"/>
      <path d="M31.2353 33.2795C33.0192 33.2795 34.4655 31.8207 34.4655 30.0211C34.4655 28.2215 33.0192 26.7626 31.2353 26.7626C29.4513 26.7626 28.0051 28.2215 28.0051 30.0211C28.0051 31.8207 29.4513 33.2795 31.2353 33.2795Z" fill="#FDC305"/>
      <path d="M35.5163 27.3709L32.8202 28.5092L33.8108 23.6172L27.3504 32.0978L30.0465 30.9595L29.0559 35.8602L35.5163 27.3709ZM29.1507 30.6988L32.734 25.998L32.0363 29.4737L33.7591 28.7611L30.1499 33.4707L30.8476 29.995L29.1507 30.6988Z" fill="#111111"/>
      <path d="M27.9447 29.4215C28.4775 29.4215 28.9095 28.9858 28.9095 28.4483C28.9095 27.9109 28.4775 27.4751 27.9447 27.4751C27.4119 27.4751 26.9799 27.9109 26.9799 28.4483C26.9799 28.9858 27.4119 29.4215 27.9447 29.4215Z" fill="#111111"/>
      <path d="M33.5612 32.9493C33.9371 32.9493 34.2417 32.642 34.2417 32.2629C34.2417 31.8838 33.9371 31.5764 33.5612 31.5764C33.1854 31.5764 32.8807 31.8838 32.8807 32.2629C32.8807 32.642 33.1854 32.9493 33.5612 32.9493Z" fill="#111111"/>
      <path d="M34.3882 31.0638C34.5547 31.0638 34.6897 30.9276 34.6897 30.7597C34.6897 30.5917 34.5547 30.4555 34.3882 30.4555C34.2217 30.4555 34.0867 30.5917 34.0867 30.7597C34.0867 30.9276 34.2217 31.0638 34.3882 31.0638Z" fill="#111111"/>
      <path d="M39.5224 18.3863C37.9674 19.8002 36.5029 21.3123 35.1377 22.9133C33.7778 24.5028 32.2433 25.9312 30.5635 27.171C30.374 26.7105 29.1594 25.8503 29.1594 25.8503C29.1594 25.8503 26.4545 23.9821 24.6799 22.5136C23.7207 21.7077 22.8169 20.8368 21.9751 19.9069L20.2522 19.8113C22.7392 23.4757 26.3826 26.183 30.5893 27.4925C31.3302 27.3709 33.4148 25.8677 34.974 24.6425C36.8187 23.0601 38.5461 21.3437 40.1426 19.5072C40.5717 18.9928 40.9044 18.4039 41.1246 17.7693C40.1426 18.0995 39.5224 18.3863 39.5224 18.3863Z" fill="#F06351"/>
      <path d="M22.3368 24.3297C22.3368 24.3297 19.0548 23.0784 17.8488 22.7396C17.2825 22.4897 16.6572 22.4084 16.0466 22.5054C15.4361 22.6024 14.8658 22.8736 14.4031 23.287C13.931 23.7039 13.5536 24.2185 13.2964 24.7958C13.0393 25.373 12.9084 25.9994 12.9128 26.6323C13.0949 27.0362 13.2335 27.4585 13.3263 27.8922C13.3694 28.3093 12.2926 28.2659 11.6034 28.2659C10.9143 28.2659 10.8109 27.0146 11.3536 25.5462C11.777 24.417 12.3018 23.3292 12.9214 22.2964C8.22664 24.7641 0 30.4642 0 30.4642C2.35316 30.3211 4.71429 30.3909 7.0551 30.6728C11.5776 31.1333 11.3622 34.7306 11.3622 34.7306C12.9529 34.2883 14.574 33.9659 16.2121 33.7661C18.0383 33.6445 18.1675 35.6082 18.1675 35.6082L18.6241 38.9622C19.3173 38.2057 20.0819 37.5189 20.9069 36.9116C21.9703 36.0529 23.3243 35.6476 24.6799 35.782L22.3368 24.3297Z" fill="#F06351"/>
      <path d="M73.7899 36.4945C72.9025 35.1681 72.4782 33.5814 72.584 31.9848V25.468C72.472 23.8596 72.8899 22.2589 73.7727 20.9148C74.5709 19.8779 75.9348 19.3624 77.8643 19.3682C79.7938 19.374 81.1002 19.8287 81.7836 20.7324C82.6168 21.8522 83.0234 23.2368 82.9292 24.6338V26.1631H79.3631V24.5035C79.3583 24.0668 79.3208 23.6311 79.2511 23.2001C79.208 22.8881 79.066 22.5985 78.8462 22.3746C78.7106 22.2573 78.5531 22.1684 78.3831 22.1132C78.213 22.058 78.0337 22.0376 77.8557 22.0531C77.6 22.0146 77.3388 22.0565 77.1076 22.1731C76.8764 22.2898 76.6864 22.4754 76.5636 22.7048C76.3371 23.315 76.2374 23.9657 76.2707 24.6164V32.8885C76.2314 33.5435 76.3465 34.1986 76.6066 34.8001C76.7309 35.0171 76.9153 35.1927 77.1372 35.3054C77.3591 35.4181 77.6088 35.463 77.8557 35.4344C78.0982 35.469 78.3454 35.4255 78.5619 35.31C78.7785 35.1946 78.9533 35.0131 79.0616 34.7914C79.27 34.1801 79.3606 33.5342 79.3286 32.8885V31.1507H82.8948V32.6539C82.9997 34.0715 82.6263 35.4832 81.8353 36.6596C81.0772 37.6154 79.7679 38.0846 77.9073 38.0846C76.0467 38.0846 74.591 37.5633 73.7899 36.4945Z" fill="#111111"/>
      <path d="M87.788 19.6201H91.871L95.3166 37.8674H91.9227L91.3111 33.8356H88.4513L87.7622 37.8413H84.3167L87.788 19.6201ZM90.9321 31.5417L89.8468 24.208L88.77 31.5417H90.9321Z" fill="#111111"/>
      <path d="M97.9615 22.3659H95.1707V19.6201H104.405V22.3659H101.648V37.8413H97.9529L97.9615 22.3659Z" fill="#111111"/>
      <path d="M111.65 19.6201H118.653V21.5144H114.174V27.536H117.809V29.3346H114.174V36.0166H118.696V37.8413H111.65V19.6201Z" fill="#444444"/>
      <path d="M120.729 19.6201H122.452L127.62 31.7241V19.6201H129.722V37.8674H128.111L122.943 25.4245V37.8413H120.807L120.729 19.6201Z" fill="#444444"/>
      <path d="M132.505 19.6201H139.499V21.5144H135.02V27.536H138.69V29.3346H135.055V36.0166H139.551V37.8413H132.505V19.6201Z" fill="#444444"/>
      <path d="M141.576 19.6201H145.211C146.643 19.5039 148.07 19.9075 149.234 20.7584C150.095 21.5144 150.517 22.7482 150.517 24.46C150.517 26.7771 149.773 28.1935 148.286 28.709L150.87 37.8413H148.424L146.055 29.2912H144.1V37.8413H141.576V19.6201ZM145.021 27.4404C145.851 27.5214 146.681 27.2858 147.347 26.78C147.618 26.4569 147.82 26.0812 147.942 25.6763C148.063 25.2713 148.101 24.8456 148.053 24.4253C148.071 23.8357 147.986 23.2477 147.804 22.6874C147.73 22.4808 147.615 22.2913 147.467 22.1301C147.319 21.969 147.141 21.8393 146.942 21.749C146.383 21.5176 145.78 21.4137 145.176 21.4449H144.065V27.4751L145.021 27.4404Z" fill="#444444"/>
      <path d="M153.911 36.4945C153.088 35.0926 152.707 33.4714 152.817 31.8458V25.7634C152.788 24.5896 152.933 23.418 153.248 22.2877C153.497 21.438 154.026 20.6992 154.747 20.1936C155.618 19.6642 156.626 19.41 157.641 19.4637C158.298 19.4007 158.961 19.4832 159.582 19.7053C160.204 19.9274 160.771 20.2839 161.242 20.7497C162.068 21.9176 162.459 23.3426 162.344 24.7728V25.4506H159.976V24.8858C159.992 24.2103 159.94 23.5348 159.821 22.8699C159.742 22.4437 159.509 22.0626 159.166 21.8011C158.719 21.5349 158.202 21.4108 157.684 21.4449C157.122 21.3963 156.562 21.5709 156.125 21.9315C155.768 22.2734 155.534 22.7261 155.462 23.2175C155.353 23.9332 155.304 24.657 155.315 25.3811V32.1499C155.247 33.1785 155.421 34.2088 155.824 35.1564C156.057 35.4478 156.354 35.6814 156.691 35.8395C157.028 35.9975 157.396 36.0757 157.768 36.0682C158.139 36.0606 158.504 35.9675 158.835 35.7959C159.165 35.6243 159.452 35.3788 159.674 35.0782C160.089 34.076 160.269 32.9905 160.2 31.9066V30.6206H157.908V28.822H162.474V37.8413H160.914L160.665 35.7472C160.467 36.4429 160.042 37.0508 159.459 37.472C158.876 37.8933 158.168 38.103 157.452 38.0672C156.778 38.1272 156.1 38.0144 155.481 37.7395C154.862 37.4645 154.322 37.0363 153.911 36.4945Z" fill="#444444"/>
      <path d="M167.711 31.4113L163.809 19.6201H166.152L168.917 28.4136L171.639 19.6201H174.008L170.132 31.4113V37.8413H167.72L167.711 31.4113Z" fill="#444444"/>
    </g>
    <defs>
      <clipPath id="clip0">
        <rect width="174" height="51.6832" fill="white"/>
      </clipPath>
    </defs>
  </symbol>

  <symbol id="desktop-header-logo" viewBox="0 0 202 60">
    <g clip-path="url(#clip0)">
      <path d="M59.8825 24.2098C58.1585 20.0433 55.3821 16.4052 51.83 13.6582C48.2778 10.9111 44.074 9.15109 39.6374 8.55344C35.2008 7.95579 30.6864 8.54141 26.5441 10.2519C22.4017 11.9624 18.7762 14.7381 16.0287 18.3023C13.2812 21.8666 11.5077 26.0948 10.885 30.5658C10.2622 35.0368 10.812 39.5943 12.4795 43.7842C14.147 47.9741 16.874 51.65 20.3887 54.4457C23.9034 57.2413 28.083 59.059 32.5111 59.7176C31.9311 57.6093 31.3411 55.2791 30.8211 52.8077C32.3339 53.7975 33.9262 54.658 35.5813 55.38C35.5813 55.38 35.7013 57.5588 35.8613 59.9899C37.6496 60.021 39.4362 59.8621 41.1916 59.5158C41.1462 59.2623 41.1462 59.0027 41.1916 58.7492C41.4816 56.8628 42.2816 53.4634 42.4416 51.2744C43.595 50.1862 44.5734 48.9236 45.3418 47.5319L45.2818 47.9758C44.7317 52.273 43.5817 56.8628 42.8817 58.1338C42.655 58.5546 42.3761 58.9444 42.0516 59.2939C45.6716 58.4373 49.0636 56.7968 51.9924 54.4862C54.9212 52.1755 57.3168 49.25 59.013 45.9125C60.7093 42.5749 61.6656 38.9052 61.8158 35.1577C61.9659 31.4102 61.3062 27.6746 59.8825 24.2098ZM58.4124 28.033C57.9724 28.4667 57.0624 28.7592 56.9123 27.4479C56.7623 26.1365 56.7223 25.2186 56.7223 25.2186C56.7223 25.2186 54.7922 21.7586 54.0722 21.7182C53.3522 21.6779 48.2419 25.2186 46.8918 26.7619C45.7218 28.0632 45.4918 27.9724 45.4918 30.2623C45.4918 31.9872 45.7118 38.5037 45.5918 43.4869L37.4414 45.6759C34.8796 46.4175 32.2744 46.9969 29.641 47.4109L28.6409 41.5299H28.5009L25.9308 28.2448C25.9308 28.2448 22.1206 26.7922 20.7206 26.3988C20.0632 26.1087 19.3372 26.0144 18.6284 26.127C17.9196 26.2396 17.2575 26.5544 16.7204 27.0343C16.1723 27.5183 15.7342 28.1157 15.4356 28.7859C15.1371 29.4561 14.9852 30.1833 14.9903 30.918C15.2017 31.3868 15.3626 31.8772 15.4703 32.3806C15.5203 32.8648 14.2702 32.8144 13.4702 32.8144C12.6702 32.8144 12.5502 31.3618 13.1802 29.657C13.6717 28.3462 14.2809 27.0834 15.0003 25.8843C15.5413 24.8133 16.2392 23.8305 17.0704 22.9691C17.0704 22.9691 17.2104 22.6261 18.3204 22.727C19.4305 22.8278 25.6008 23.1607 25.6008 23.1607L25.6508 20.8709C32.3575 19.9368 39.1216 19.4851 45.8918 19.5192C45.8918 20.1345 45.8918 20.7498 45.8918 21.3652C48.4562 20.1847 51.2175 19.5004 54.0322 19.3477C54.1828 19.3438 54.332 19.3778 54.4664 19.4464C54.6008 19.5151 54.7162 19.6163 54.8022 19.7411C55.1423 20.1749 57.2124 22.7673 57.4524 23.1406C58.1246 24.1097 58.7359 25.1204 59.2825 26.1668C59.0951 26.8293 58.8012 27.4564 58.4124 28.0229V28.033Z" fill="#FDC305"/>
      <path d="M56.4628 21.8594C56.9329 22.4647 57.3429 22.9993 57.4629 23.1607C58.1351 24.1298 58.7464 25.1406 59.293 26.1869C59.1027 26.8278 58.8124 27.4339 58.4329 27.9825C57.9929 28.4163 57.0829 28.7088 56.9329 27.3974C56.7829 26.0861 56.7229 25.2186 56.7229 25.2186C56.7229 25.2186 54.7928 21.7586 54.0727 21.7182C53.3527 21.6779 48.2424 25.2186 46.8924 26.7619C45.7223 28.0632 45.4923 27.9724 45.4923 30.2623C45.4923 31.7754 45.6623 36.9704 45.6223 41.5904C47.4324 41.7922 50.0925 42.2966 50.8926 43.4869C50.8926 43.4869 50.6026 36.2441 58.703 40.037C58.703 40.037 58.983 30.1614 70.1635 32.6933C66.3628 28.1922 61.7035 24.5079 56.4628 21.8594Z" fill="#F06351"/>
      <path d="M45.9323 19.5192C45.9729 13.9295 45.5043 8.34783 44.5322 2.84465C44.5322 2.84465 44.3822 1.53329 43.6622 2.60255C43.068 3.88085 42.6636 5.24042 42.4621 6.63752C38.1871 6.36084 33.896 6.47563 29.6415 6.9805C28.8214 4.20645 27.4214 2.94553 26.7513 3.27841C26.0813 3.6113 26.0013 6.58709 26.0013 6.58709L25.6713 20.8709C32.3846 19.9359 39.1554 19.4841 45.9323 19.5192Z" fill="#F06351"/>
      <path d="M45.3515 47.5319C45.4815 46.4526 45.5515 45.0202 45.5915 43.4364L37.4415 45.6254C34.8809 46.384 32.2758 46.9804 29.6415 47.4109L30.7515 52.4546C30.7515 52.5656 30.7515 52.6765 30.8215 52.7875C32.3342 53.7774 33.9265 54.6378 35.5815 55.3598C38.0002 54.1935 40.3038 52.7986 42.4615 51.1937V51.2542C43.6096 50.1714 44.5845 48.9158 45.3515 47.5319Z" fill="#E55645"/>
      <path d="M32.0016 16.3618C31.9516 16.2609 33.0016 17.0477 33.4116 17.2898C33.8216 17.5319 34.0216 17.7135 34.0216 17.885C34.0216 18.0565 33.7616 18.228 33.4016 18.228C33.0416 18.228 32.4816 18.1069 32.4016 17.9657C32.3216 17.8245 33.0016 17.9657 33.3416 17.9657H33.6316C33.0159 17.5114 32.4672 16.9714 32.0016 16.3618Z" fill="black"/>
      <path d="M39.502 16.4728C39.502 16.4728 38.502 17.764 38.412 17.8245C38.322 17.885 38.2419 18.1675 38.6019 18.117C39.0152 18.0548 39.4231 17.9604 39.8219 17.8346C39.9319 17.774 39.892 17.6328 39.702 17.653C39.512 17.6732 39.022 17.7034 38.702 17.764L39.5519 16.4829C39.5519 16.4829 39.582 16.3618 39.502 16.4728Z" fill="black"/>
      <path d="M36.3617 22.6362C36.8253 22.4302 37.2084 22.0756 37.4517 21.6274C37.7317 20.9617 37.4517 20.7095 37.0117 20.6187C36.4064 20.5073 35.7817 20.6297 35.2617 20.9617C34.8717 21.3349 34.9217 21.6981 35.2617 21.9704C35.5995 22.2376 35.9691 22.4613 36.3617 22.6362Z" fill="black"/>
      <path d="M36.0016 23.9072C35.8868 24.136 35.7308 24.3412 35.5416 24.5124C35.2568 24.7436 34.9067 24.8778 34.5416 24.8958C33.991 24.9503 33.4405 24.7916 33.0016 24.4519C32.8 24.333 32.6206 24.1793 32.4716 23.998C32.3715 23.8881 32.2486 23.802 32.1116 23.7458C32.1116 23.7458 32.8616 27.8917 34.6816 28.5575C36.5016 29.2233 36.8416 27.7909 36.8916 27.4075C36.9525 26.2595 36.6666 25.1198 36.0716 24.1392C36.0716 23.8366 36.0516 24.0383 36.0016 23.9072Z" fill="#F06351"/>
      <path d="M34.3015 25.0572C33.8335 24.9893 33.384 24.8265 32.9801 24.5786C32.5763 24.3306 32.2263 24.0027 31.9515 23.6147C31.9269 23.5869 31.9133 23.551 31.9133 23.5138C31.9133 23.4766 31.9269 23.4407 31.9515 23.4129C31.9646 23.3995 31.9801 23.3888 31.9973 23.3816C32.0145 23.3743 32.0329 23.3705 32.0515 23.3705C32.0702 23.3705 32.0886 23.3743 32.1058 23.3816C32.1229 23.3888 32.1385 23.3995 32.1515 23.4129C32.399 23.7631 32.7129 24.0603 33.0751 24.2871C33.4374 24.5139 33.8406 24.666 34.2615 24.7344C34.5945 24.7091 34.9168 24.6045 35.2019 24.4292C35.487 24.2538 35.7268 24.0127 35.9015 23.7256L36.0415 23.534L36.1415 23.7559C36.1415 23.7559 36.5215 24.5225 37.1415 24.5629C37.7615 24.6032 38.2015 24.1392 38.7715 23.2616C38.7927 23.2295 38.8257 23.2072 38.8632 23.1996C38.9007 23.1921 38.9397 23.1998 38.9715 23.2212C39.0034 23.2427 39.0254 23.2759 39.0329 23.3138C39.0404 23.3516 39.0327 23.3909 39.0115 23.423C38.3449 24.4116 37.7149 24.8857 37.1215 24.8453C36.8922 24.8147 36.6726 24.7326 36.4788 24.6052C36.285 24.4778 36.1219 24.3082 36.0015 24.1089C35.8059 24.3845 35.5518 24.6127 35.2577 24.7767C34.9636 24.9407 34.6369 25.0365 34.3015 25.0572Z" fill="black"/>
      <path d="M36.2616 38.6348C38.3327 38.6348 40.0116 36.9412 40.0116 34.8521C40.0116 32.7629 38.3327 31.0693 36.2616 31.0693C34.1905 31.0693 32.5116 32.7629 32.5116 34.8521C32.5116 36.9412 34.1905 38.6348 36.2616 38.6348Z" fill="#FDC305"/>
      <path d="M41.2316 31.7754L38.1016 33.0968L39.2516 27.4176L31.7516 37.2629L34.8816 35.9415L33.7316 41.6308L41.2316 31.7754ZM33.8416 35.6389L38.0016 30.1816L37.1916 34.2165L39.1916 33.3894L35.0016 38.8568L35.8116 34.8218L33.8416 35.6389Z" fill="#111111"/>
      <path d="M32.4415 34.156C33.0601 34.156 33.5615 33.6502 33.5615 33.0262C33.5615 32.4023 33.0601 31.8964 32.4415 31.8964C31.823 31.8964 31.3215 32.4023 31.3215 33.0262C31.3215 33.6502 31.823 34.156 32.4415 34.156Z" fill="#111111"/>
      <path d="M38.9619 38.2515C39.3982 38.2515 39.7519 37.8947 39.7519 37.4546C39.7519 37.0145 39.3982 36.6577 38.9619 36.6577C38.5256 36.6577 38.1719 37.0145 38.1719 37.4546C38.1719 37.8947 38.5256 38.2515 38.9619 38.2515Z" fill="#111111"/>
      <path d="M39.9219 36.0625C40.1152 36.0625 40.2719 35.9045 40.2719 35.7095C40.2719 35.5145 40.1152 35.3564 39.9219 35.3564C39.7286 35.3564 39.5719 35.5145 39.5719 35.7095C39.5719 35.9045 39.7286 36.0625 39.9219 36.0625Z" fill="#111111"/>
      <path d="M45.8822 21.345C44.077 22.9865 42.3768 24.7419 40.792 26.6005C39.2133 28.4458 37.4318 30.1041 35.4817 31.5434C35.2617 31.0087 33.8516 30.0101 33.8516 30.0101C33.8516 30.0101 30.7115 27.8413 28.6514 26.1365C27.5377 25.2009 26.4886 24.1898 25.5112 23.1103L23.5111 22.9993C26.3983 27.2534 30.628 30.3963 35.5117 31.9166C36.3717 31.7754 38.7919 30.0303 40.602 28.6079C42.7434 26.7709 44.7489 24.7784 46.6022 22.6463C47.1004 22.0491 47.4867 21.3654 47.7423 20.6288C46.6023 21.0121 45.8822 21.345 45.8822 21.345Z" fill="#F06351"/>
      <path d="M65.2227 3.5306L56.7627 13.0531L55.5427 11.0457L63.6927 0L65.2227 3.5306Z" fill="#FDC305"/>
      <path d="M62.6531 17.4109L68.1931 13.265L67.4131 9.49226L62.0131 14.3443L62.6531 17.4109Z" fill="#FDC305"/>
      <path d="M59.923 49.8016L66.053 53.0094L69.063 50.649L62.373 47.8749L59.923 49.8016Z" fill="#FDC305"/>
      <path d="M1.94995 6.02219L5.01995 2.63282L14.31 11.7115L13.09 14.0114L1.94995 6.02219Z" fill="#FDC305"/>
      <path d="M7.38003 16.4223L2.68003 13.265L0.280029 17.1688L5.43003 19.5898L7.38003 16.4223Z" fill="#FDC305"/>
      <path d="M13.91 53.0094L9.35999 56.3887L12.16 60L16.18 55.9449L13.91 53.0094Z" fill="#FDC305"/>
      <path d="M25.9313 28.2448C25.9313 28.2448 22.1211 26.7922 20.721 26.3988C20.0636 26.1087 19.3377 26.0144 18.6289 26.127C17.9201 26.2396 17.258 26.5544 16.7208 27.0343C16.1728 27.5183 15.7346 28.1157 15.4361 28.7859C15.1375 29.4561 14.9856 30.1833 14.9907 30.918C15.2021 31.3868 15.3631 31.8772 15.4708 32.3806C15.5208 32.8648 14.2707 32.8144 13.4707 32.8144C12.6706 32.8144 12.5506 31.3618 13.1807 29.657C13.6722 28.3462 14.2814 27.0834 15.0007 25.8843C9.55047 28.7492 0 35.3665 0 35.3665C2.73182 35.2003 5.47292 35.2814 8.1904 35.6086C13.4407 36.1432 13.1907 40.3194 13.1907 40.3194C15.0373 39.8059 16.9192 39.4316 18.8209 39.1997C20.941 39.0585 21.091 41.3383 21.091 41.3383L21.6211 45.232C22.4259 44.3537 23.3134 43.5564 24.2712 42.8514C25.5057 41.8545 27.0776 41.3839 28.6514 41.54L25.9313 28.2448Z" fill="#F06351"/>
      <path d="M85.6642 42.3672C84.634 40.8274 84.1415 38.9854 84.2642 37.1318V29.5662C84.1343 27.6991 84.6194 25.8408 85.6442 24.2804C86.5709 23.0767 88.1542 22.4781 90.3942 22.4849C92.6342 22.4916 94.1509 23.0195 94.9442 24.0686C95.9115 25.3687 96.3836 26.9761 96.2742 28.5979V30.3732H92.1342V28.4465C92.1286 27.9396 92.0852 27.4338 92.0042 26.9334C91.9542 26.5712 91.7893 26.235 91.5342 25.9751C91.3767 25.8389 91.1939 25.7357 90.9965 25.6717C90.799 25.6076 90.5909 25.5838 90.3842 25.6019C90.0874 25.5572 89.7842 25.6059 89.5158 25.7412C89.2474 25.8766 89.0268 26.0921 88.8842 26.3584C88.6213 27.0669 88.5055 27.8222 88.5442 28.5777V38.1809C88.4986 38.9413 88.6322 39.7019 88.9342 40.4001C89.0785 40.652 89.2926 40.8559 89.5502 40.9868C89.8078 41.1176 90.0977 41.1696 90.3842 41.1365C90.6658 41.1767 90.9527 41.1261 91.2041 40.9921C91.4555 40.8581 91.6585 40.6474 91.7842 40.3901C92.0261 39.6803 92.1313 38.9305 92.0942 38.1809V36.1634H96.2342V37.9085C96.3561 39.5542 95.9226 41.1931 95.0042 42.5588C94.1242 43.6685 92.6042 44.2132 90.4442 44.2132C88.2842 44.2132 86.5942 43.6079 85.6642 42.3672Z" fill="#111111"/>
      <path d="M101.915 22.7774H106.655L110.655 43.961H106.715L106.005 39.2804H102.685L101.885 43.9307H97.8849L101.915 22.7774ZM105.565 36.6174L104.305 28.1036L103.055 36.6174H105.565Z" fill="#111111"/>
      <path d="M113.725 25.965H110.485V22.7774H121.205V25.965H118.005V43.9307H113.715L113.725 25.965Z" fill="#111111"/>
      <path d="M129.616 22.7774H137.746V24.9765H132.546V31.967H136.766V34.0551H132.546V41.8124H137.796V43.9307H129.616V22.7774Z" fill="#444444"/>
      <path d="M140.157 22.7774H142.157L148.157 36.8292V22.7774H150.597V43.961H148.727L142.727 29.5158V43.9307H140.247L140.157 22.7774Z" fill="#444444"/>
      <path d="M153.828 22.7774H161.948V24.9765H156.748V31.967H161.008V34.0551H156.788V41.8124H162.008V43.9307H153.828V22.7774Z" fill="#444444"/>
      <path d="M164.358 22.7774H168.578C170.241 22.6424 171.897 23.111 173.248 24.0989C174.248 24.9765 174.738 26.4089 174.738 28.3961C174.738 31.0861 173.875 32.7303 172.148 33.3289L175.148 43.9307H172.308L169.558 34.0047H167.288V43.9307H164.358V22.7774ZM168.358 31.8561C169.322 31.9501 170.285 31.6766 171.058 31.0894C171.372 30.7143 171.607 30.2782 171.748 29.8081C171.889 29.338 171.933 28.8437 171.878 28.3558C171.898 27.6714 171.8 26.9887 171.588 26.3383C171.502 26.0984 171.369 25.8784 171.198 25.6913C171.026 25.5042 170.819 25.3537 170.588 25.2488C169.939 24.9802 169.239 24.8596 168.538 24.8958H167.248V31.8964L168.358 31.8561Z" fill="#444444"/>
      <path d="M178.679 42.3672C177.723 40.7397 177.28 38.8576 177.409 36.9704V29.9092C177.374 28.5466 177.543 27.1864 177.909 25.8742C178.198 24.8877 178.811 24.0302 179.649 23.4432C180.66 22.8286 181.83 22.5335 183.009 22.5958C183.771 22.5227 184.54 22.6184 185.262 22.8763C185.984 23.1341 186.642 23.5479 187.189 24.0888C188.148 25.4446 188.602 27.0989 188.469 28.7592V29.5461H185.719V28.8904C185.738 28.1062 185.677 27.322 185.539 26.5501C185.448 26.0554 185.177 25.6129 184.779 25.3093C184.26 25.0003 183.66 24.8562 183.059 24.8958C182.406 24.8394 181.756 25.042 181.249 25.4607C180.834 25.8576 180.563 26.3832 180.479 26.9536C180.352 27.7845 180.295 28.6248 180.309 29.4654V37.3235C180.229 38.5176 180.432 39.7136 180.899 40.8137C181.17 41.152 181.515 41.4233 181.906 41.6067C182.297 41.7902 182.725 41.881 183.156 41.8723C183.587 41.8635 184.011 41.7554 184.394 41.5562C184.778 41.357 185.111 41.072 185.369 40.7229C185.851 39.5595 186.059 38.2993 185.979 37.041V35.5481H183.319V33.46H188.619V43.9307H186.809L186.519 41.4997C186.29 42.3073 185.796 43.013 185.119 43.502C184.442 43.991 183.621 44.2346 182.789 44.193C182.007 44.2626 181.22 44.1317 180.501 43.8125C179.783 43.4933 179.156 42.9961 178.679 42.3672Z" fill="#444444"/>
      <path d="M194.699 36.466L190.169 22.7774H192.889L196.099 32.9859L199.259 22.7774H202.009L197.509 36.466V43.9307H194.709L194.699 36.466Z" fill="#444444"/>
    </g>
    <defs>
      <clipPath id="clip0">
        <rect width="202" height="60" fill="white"/>
      </clipPath>
    </defs>
  </symbol>

  <symbol id="mobile-header-logo-text" viewBox="0 0 101 18">
    <g clip-path="url(#clip0)">
      <path d="M1.26449 16.5385C0.36955 15.2762 -0.0747041 13.7627 1.02073e-05 12.2308V5.84615C-0.108365 4.29774 0.308071 2.75746 1.18546 1.46154C2.05478 0.461538 3.39829 0 5.37403 0C7.34978 0 8.61425 0.461538 9.40455 1.30769C10.2626 2.37941 10.6846 3.72136 10.59 5.07692V6.61539H6.71754V4.84615C6.74881 4.32289 6.66808 3.799 6.48045 3.30769C6.38016 3.10938 6.2212 2.9448 6.02403 2.83513C5.82686 2.72547 5.60049 2.67572 5.37403 2.69231C4.82082 2.69231 4.42568 2.84615 4.26762 3.23077C4.08883 3.77733 4.00862 4.34988 4.03053 4.92308V13.1538C3.98879 13.71 4.0978 14.267 4.34665 14.7692C4.5047 15.1538 4.89985 15.3077 5.45306 15.3077C6.00627 15.3077 6.32239 15.1538 6.48045 14.7692C6.66013 14.2494 6.74049 13.7019 6.71754 13.1538V11.3077H10.59V12.8462C10.6704 14.2238 10.2508 15.5852 9.40455 16.6923C8.61425 17.6154 7.27075 18.0769 5.37403 18.0769C3.47732 18 2.05478 17.5385 1.26449 16.5385Z" fill="#111111"/>
      <path d="M15.2527 0.23077H19.7574L23.0767 17.7692H19.4413L18.8091 14.0769H16.2011L15.5689 17.7692H11.8545L15.2527 0.23077ZM18.493 11.7692L17.5446 4.92308L16.5963 11.7692H18.493Z" fill="#111111"/>
      <path d="M25.8427 3.15385H23.1557V0.23077H32.5602V3.07692H29.8732V17.7692H25.8427V3.15385Z" fill="#111111"/>
      <path d="M39.752 0.23077H46.7066V2.07692H42.2019V7.84615H45.8372V9.61539H42.2019V16.0769H46.7066V17.8462H39.6729V0.23077H39.752Z" fill="#111111"/>
      <path d="M48.7613 0.23077H50.5L55.6369 11.8462V0.23077H57.6917V17.7692H56.1111L50.8951 5.76923V17.7692H48.7613V0.23077Z" fill="#111111"/>
      <path d="M60.0626 0.23077H67.0172V2.07692H62.5125V7.84615H66.1479V9.61539H62.5125V16.0769H67.0172V17.8462H60.0626V0.23077Z" fill="#111111"/>
      <path d="M69.072 0.23077H72.7074C74.1375 0.134618 75.5587 0.514353 76.7379 1.30769C77.6072 2 78.0024 3.23077 78.0024 4.84616C78.0024 7.07692 77.2911 8.46154 75.7895 8.92308L78.3185 17.6923H75.8686L73.4977 9.46154H71.5219V17.6923H68.993V0.23077H69.072ZM72.5493 7.76923C73.364 7.83458 74.1761 7.61652 74.8412 7.15385C75.3154 6.76923 75.5524 6 75.5524 4.84616C75.5743 4.27296 75.4941 3.7004 75.3154 3.15385C75.1375 2.76166 74.832 2.4373 74.446 2.23077C73.9017 1.98934 73.3042 1.8836 72.7074 1.92308H71.601V7.69231H72.5493V7.76923Z" fill="#111111"/>
      <path d="M81.1635 16.4615C80.342 15.1166 79.9564 13.5617 80.0571 12V6.15384C80.0376 5.03911 80.1705 3.9268 80.4522 2.84615C80.7167 2.03863 81.2437 1.33668 81.9538 0.846152C82.8362 0.337748 83.8542 0.0967294 84.8779 0.153844C86.5375 0.153844 87.723 0.53846 88.4343 1.38461C89.2524 2.50191 89.6438 3.86237 89.5407 5.23077V5.84615H87.1698V5.30769C87.1734 4.66346 87.1205 4.0201 87.0117 3.38461C86.9451 2.98303 86.7178 2.62348 86.3795 2.38461C85.9353 2.10082 85.4081 1.96579 84.8779 2C84.3113 1.96466 83.7504 2.12843 83.2973 2.46154C83.1114 2.61401 82.9595 2.80181 82.8508 3.01344C82.742 3.22507 82.6789 3.45608 82.6651 3.69231C82.5609 4.37999 82.5081 5.07411 82.507 5.76923V12.3077C82.4488 13.3038 82.6105 14.3006 82.9812 15.2308C83.2973 15.8462 83.9296 16.0769 84.8779 16.0769C85.2524 16.1223 85.6322 16.0589 85.9697 15.8947C86.3072 15.7304 86.5873 15.4727 86.7746 15.1538C87.1922 14.1811 87.3812 13.1299 87.3278 12.0769V10.8462H85.036V9.07692H89.6197V17.7692H88.0391L87.802 15.7692C87.5948 16.4395 87.1634 17.0231 86.5763 17.4273C85.9892 17.8315 85.2801 18.0331 84.5618 18C83.9088 18.0374 83.2565 17.9164 82.6633 17.6479C82.0702 17.3794 81.5549 16.9717 81.1635 16.4615Z" fill="#111111"/>
      <path d="M94.6776 11.6154L90.8052 0.30769H93.1761L95.9421 8.76923L98.6291 0.30769H101L97.1275 11.6154V17.7692H94.7566V11.6154H94.6776Z" fill="#111111"/>
    </g>
    <defs>
      <clipPath id="clip0">
        <rect width="101" height="18" fill="white"/>
      </clipPath>
    </defs>
  </symbol>
</svg>
